<svg xmlns="http://www.w3.org/2000/svg" xmlns:xlink="http://www.w3.org/1999/xlink" xmlns:xodm="http://www.corel.com/coreldraw/odm/2003" xml:space="preserve" version="1.1" style="shape-rendering:geometricPrecision; text-rendering:geometricPrecision; image-rendering:optimizeQuality; fill-rule:evenodd; clip-rule:evenodd" viewBox="6340.42 17255.38 80466.7 21481.06">
 <defs>
  <style type="text/css">
   <![CDATA[
    .fil1 {fill:#009846}
    .fil0 {fill:#1B4E9B}
    .fil2 {fill:#1B4E9B;fill-rule:nonzero}
   ]]>
  </style>
 </defs>
 <g id="Layer_x0020_1">
  <metadata id="CorelCorpID_0Corel-Layer"/>
  <g id="_2316932643968">
   <g>
    <g>
     <path class="fil0" d="M24139.51 17255.38c-2846.54,3675.45 -4077.91,5258.02 -7909.75,8009.86 -1993.69,1431.77 -3866.51,2199.34 -4743.44,2191.83 -1938.09,-16.67 -3385.7,-567.92 -5139.98,-1694.93l-5.92 -3908.69c1044.06,511.15 4243.04,2350.97 5211.83,2254.35 2990.33,-298.76 11100.64,-5403.23 12587.26,-6852.42z"/>
     <path class="fil1" d="M24139.51 22895.04c-2846.54,3675.45 -4077.91,5258.02 -7909.75,8009.86 -1993.69,1431.77 -3866.51,2199.33 -4743.44,2191.83 -1938.09,-16.67 -3385.7,-567.92 -5139.98,-1694.93l-5.92 -3908.69c1044.06,511.15 4243.04,2350.96 5211.83,2254.35 2990.33,-298.76 11100.64,-5403.23 12587.26,-6852.42z"/>
     <path class="fil0" d="M24139.51 28534.7c-2846.54,3675.45 -4077.91,5258.02 -7909.75,8009.85 -1993.69,1431.77 -3866.51,2199.34 -4743.44,2191.84 -1938.09,-16.67 -3385.7,-567.92 -5139.98,-1694.93l-5.92 -3908.7c1044.06,511.16 4243.04,2350.97 5211.83,2254.36 2990.33,-298.76 11100.64,-5403.23 12587.26,-6852.42z"/>
    </g>
    <path class="fil2" d="M86807.12 30204.02c0,552.39 -243.89,827.23 -733.78,827.23 -378.61,0 -633.22,-29.14 -757.32,-85.14 -241.69,-109.47 -363.59,-357.67 -363.59,-742.09l0 -2822.25 -6268.11 0 0 2822.25c0,552.39 -241.79,827.23 -727.37,827.23 -387.22,0 -646.04,-26.74 -770.14,-77.82 -241.69,-109.48 -363.69,-360.08 -363.69,-749.41l0 -7561.79c0,-389.33 124.1,-639.84 370.1,-749.41 117.69,-51.09 372.2,-77.83 763.73,-77.83 485.58,0 727.37,274.94 727.37,827.24l0 2907.48 6268.11 0 0 -2907.48c0,-384.42 124.1,-632.62 370,-742.1 119.89,-55.89 372.3,-85.14 750.91,-85.14 489.89,0 733.78,274.94 733.78,827.24l0 7561.79zm-11717.49 -7391.52c0,557.2 -243.79,834.55 -727.27,834.55l-4958.9 0c-513.53,0 -821.42,7.31 -926.39,21.93 -425.69,65.71 -639.63,240.89 -639.63,527.95l0 4296.73c0,469.56 586.24,705.54 1760.74,705.54l4732.02 0c226.77,0 406.46,94.95 539.07,284.66 121.9,172.78 181.8,379.61 181.8,627.71 0,253.11 -59.9,462.34 -181.8,635.02 -132.61,189.81 -312.3,284.66 -539.07,284.66l-4732.02 0c-650.45,0 -1123.21,-29.14 -1416.29,-85.14 -363.58,-70.51 -735.88,-226.26 -1114.59,-464.64 -423.49,-270.14 -714.46,-566.92 -877.02,-890.54 -147.64,-294.37 -220.35,-649.65 -220.35,-1068.12l0 -4320.97c0,-630.22 254.61,-1165.48 763.73,-1603.39 406.35,-355.27 885.63,-588.84 1435.41,-698.32 284.56,-55.89 688.81,-85.14 1210.85,-85.14l4982.44 0c483.48,0 727.27,333.34 727.27,997.51zm-10988.01 7391.52c0,552.39 -241.79,827.23 -727.38,827.23 -387.12,0 -645.94,-26.74 -770.04,-77.82 -241.79,-109.48 -363.79,-360.08 -363.79,-749.41l0 -7561.79c0,-389.33 124.1,-639.84 370.1,-749.41 117.79,-51.09 372.3,-77.83 763.73,-77.83 485.59,0 727.38,274.94 727.38,827.24l0 7561.79zm-6164.74 -4861.14l0 -1097.27c0,-313.91 -230.98,-506.12 -695.22,-576.63 -100.57,-14.62 -440.71,-21.93 -1022.65,-21.93l-4456.09 0 0 2238.4 4706.49 0c427.79,0 716.56,-14.62 872.71,-43.77 395.84,-70.61 594.76,-236.08 594.76,-498.8zm1861.2 -14.62c0,856.48 -389.43,1493.91 -1165.88,1912.38 -592.66,318.71 -1309.21,476.87 -2150.07,476.87l-1133.73 0 3585.38 1724.98c342.26,165.47 513.43,433.1 513.43,798.09 0,209.23 -66.31,386.82 -201.12,535.26 -145.44,160.56 -342.25,245.7 -588.25,255.41 -981.88,38.97 -2282.58,-377.11 -3899.89,-1248.11 -996.91,-583.94 -1996.02,-1165.38 -2995.03,-1746.92l0 2167.8c0,552.39 -241.79,827.23 -727.37,827.23 -387.12,0 -643.84,-26.74 -763.73,-77.82 -246,-109.48 -370.1,-360.08 -370.1,-749.41l0 -7561.79c0,-552.3 239.69,-827.24 720.97,-827.24l5602.73 0c911.37,0 1677.2,153.25 2299.81,462.25 849.26,423.38 1272.85,1092.46 1272.85,2004.83l0 1046.19zm-12338.79 4503.56c0,836.95 -331.54,1255.42 -996.91,1255.42 -59.9,0 -119.79,-2.4 -181.79,-7.31 -213.85,-24.34 -468.46,-179.99 -765.94,-467.15l-6109.75 -5909.73 0 5500.97c0,389.33 -124.1,639.93 -370.1,749.41 -124,51.08 -382.91,77.82 -770.14,77.82 -481.27,0 -720.86,-274.84 -720.86,-827.23l0 -7243.08c0,-294.38 21.33,-498.71 62,-613.09 64.2,-165.47 199.02,-318.71 408.56,-455.03 145.53,-94.86 303.79,-143.53 474.96,-143.53 363.69,0 725.17,172.77 1084.55,520.73l6024.32 5836.82 0 -5464.61c0,-391.74 124.1,-639.84 370.09,-749.41 119.69,-53.49 376.41,-77.83 763.73,-77.83 485.59,0 727.28,274.94 727.28,827.24l0 7189.59zm-12385.77 194.61c0,669.08 -241.79,1004.82 -725.27,1004.82l-4978.03 0c-797.98,0 -1497.51,-153.24 -2098.58,-462.24 -832.24,-428.19 -1247.31,-1085.15 -1247.31,-1968.28l0 -4304.04c0,-871 409.26,-1524.66 1227.98,-1968.27 631.62,-342.15 1377.72,-513.43 2237.71,-513.43l3358.81 0c479.17,0 720.96,275.04 720.96,827.24l0 170.27c0,557.1 -241.79,834.55 -720.96,834.55 -29.95,0 -2158.68,-4.91 -2389.75,-14.63 -233.08,-9.71 -436.4,-14.52 -611.79,-14.52 -1319.93,0 -1980.99,226.26 -1980.99,676.39l0 1255.42 6488.36 0c241.79,0 430.09,90.05 562.71,270.04 121.89,167.87 181.89,372.3 181.89,613.09 0,253.11 -62.1,469.65 -188.3,649.64 -141.23,199.53 -329.44,299.29 -562.71,299.29l-6462.72 0 0 1160.57c0,437.91 515.53,656.86 1548.9,656.86l4913.82 0c483.48,0 725.27,274.94 725.27,827.23z"/>
   </g>
  </g>
 </g>
</svg>