<svg xmlns="http://www.w3.org/2000/svg" width="29.847" height="35.998" viewBox="0 0 29.847 35.998">
  <g id="Layer_x0020_1" transform="translate(-6340.411 -17255.4)">
    <g id="_2316932643968" transform="translate(6340.411 17255.4)">
      <g id="Group_49" data-name="Group 49" transform="translate(0 0)">
        <g id="Group_48" data-name="Group 48">
          <path id="Path_605" data-name="Path 605" d="M6370.253,17255.4c-4.769,6.156-6.838,8.8-13.262,13.43-3.341,2.4-6.482,3.684-7.957,3.672a15,15,0,0,1-8.616-2.844l-.012-6.539c1.749.852,7.118,3.918,8.744,3.766C6354.164,17266.383,6367.764,17257.824,6370.253,17255.4Z" transform="translate(-6340.406 -17255.398)" fill="#1b4e9b" fill-rule="evenodd"/>
          <path id="Path_606" data-name="Path 606" d="M6370.253,22894.99c-4.769,6.156-6.838,8.84-13.262,13.434-3.341,2.4-6.482,3.684-7.957,3.684a15.059,15.059,0,0,1-8.616-2.844l-.012-6.555c1.749.863,7.118,3.941,8.744,3.777C6354.164,22905.975,6367.764,22897.416,6370.253,22894.99Z" transform="translate(-6340.406 -22885.525)" fill="#009846" fill-rule="evenodd"/>
          <path id="Path_607" data-name="Path 607" d="M6370.253,28534.7c-4.769,6.156-6.838,8.813-13.262,13.43-3.341,2.4-6.482,3.684-7.957,3.66a15.03,15.03,0,0,1-8.616-2.844l-.012-6.527c1.749.84,7.118,3.938,8.744,3.754C6354.164,28545.684,6367.764,28537.129,6370.253,28534.7Z" transform="translate(-6340.406 -28515.795)" fill="#1b4e9b" fill-rule="evenodd"/>
        </g>
      </g>
    </g>
  </g>
</svg>
